<svg width="16" height="16" viewBox="0 0 16 16" fill="none" xmlns="http://www.w3.org/2000/svg">
<path d="M7.5 6H8.5V5.5C8.5 5.36739 8.55268 5.24021 8.64645 5.14645C8.74021 5.05268 8.86739 5 9 5H10.5C10.6326 5 10.7598 5.05268 10.8536 5.14645C10.9473 5.24021 11 5.36739 11 5.5V6H13V4C13 3.46957 12.7893 2.96086 12.4142 2.58579C12.0391 2.21071 11.5304 2 11 2H5C4.46957 2 3.96086 2.21071 3.58579 2.58579C3.21071 2.96086 3 3.46957 3 4V6H5V5.5C5 5.36739 5.05268 5.24021 5.14645 5.14645C5.24021 5.05268 5.36739 5 5.5 5H7C7.13261 5 7.25979 5.05268 7.35355 5.14645C7.44732 5.24021 7.5 5.36739 7.5 5.5V6ZM3.5 7C2.83696 7 2.20107 7.26339 1.73223 7.73223C1.26339 8.20107 1 8.83696 1 9.5V13.5C1 13.6326 1.05268 13.7598 1.14645 13.8536C1.24021 13.9473 1.36739 14 1.5 14C1.63261 14 1.75979 13.9473 1.85355 13.8536C1.94732 13.7598 2 13.6326 2 13.5V11H14V13.5C14 13.6326 14.0527 13.7598 14.1464 13.8536C14.2402 13.9473 14.3674 14 14.5 14C14.6326 14 14.7598 13.9473 14.8536 13.8536C14.9473 13.7598 15 13.6326 15 13.5V9.5C15 8.83696 14.7366 8.20107 14.2678 7.73223C13.7989 7.26339 13.163 7 12.5 7H3.5Z" fill="black"/>
</svg>
