<svg width="24" height="24" viewBox="0 0 24 24" fill="none" xmlns="http://www.w3.org/2000/svg">
<g clip-path="url(#clip0_323_196)">
<path d="M16.0639 10.4972H16.7609C17.2537 10.4985 17.7418 10.4021 18.1971 10.2135C18.6524 10.0249 19.0657 9.74788 19.4131 9.39844L23.2498 5.53125L22.2083 4.48125L18.2905 8.39906L17.4762 7.58484L21.3941 3.66656L20.3159 2.62078L16.4126 6.52359L15.6008 5.70938L19.5186 1.79109L18.4686 0.75L14.6014 4.58672C14.2519 4.93424 13.9749 5.34763 13.7863 5.80296C13.5977 6.2583 13.5013 6.74653 13.5026 7.23938V7.93594L11.4809 9.95766L2.24983 0.75C0.174206 3.32203 1.39999 8.04891 3.73671 10.3861L7.74452 14.3939C8.98905 15.6384 9.23608 15.7495 10.648 15.1814C10.9522 15.0591 11.0628 15.0727 11.3464 15.3558L11.9558 15.9244C12.0931 16.065 12.0964 16.1062 12.0964 16.3753V16.635C12.0964 17.6231 12.7283 18.1912 13.1445 18.615L17.9998 23.25L21.3748 19.875L14.0422 12.5189L16.0639 10.4972Z" fill="black"/>
<path d="M10.658 16.6214C9.26016 16.9078 8.40281 17.1717 6.76359 15.5325C6.73734 15.5062 6.71016 15.4809 6.68391 15.4547L5.76984 14.5406L0.75 19.5L4.5 23.25L11.25 16.5L10.658 16.6214Z" fill="black"/>
</g>
<defs>
<clipPath id="clip0_323_196">
<rect width="24" height="24" fill="white"/>
</clipPath>
</defs>
</svg>
