<svg width="20" height="6" viewBox="0 0 20 6" fill="none" xmlns="http://www.w3.org/2000/svg">
<path fill-rule="evenodd" clip-rule="evenodd" d="M2.5 0.5C3.16304 0.5 3.79893 0.763392 4.26777 1.23223C4.73661 1.70107 5 2.33696 5 3C5 3.66304 4.73661 4.29893 4.26777 4.76777C3.79893 5.23661 3.16304 5.5 2.5 5.5C1.83696 5.5 1.20107 5.23661 0.732233 4.76777C0.263392 4.29893 0 3.66304 0 3C0 2.33696 0.263392 1.70107 0.732233 1.23223C1.20107 0.763392 1.83696 0.5 2.5 0.5ZM17.5 0.5C18.163 0.5 18.7989 0.763392 19.2678 1.23223C19.7366 1.70107 20 2.33696 20 3C20 3.66304 19.7366 4.29893 19.2678 4.76777C18.7989 5.23661 18.163 5.5 17.5 5.5C16.837 5.5 16.2011 5.23661 15.7322 4.76777C15.2634 4.29893 15 3.66304 15 3C15 2.33696 15.2634 1.70107 15.7322 1.23223C16.2011 0.763392 16.837 0.5 17.5 0.5ZM10.226 0.5C10.889 0.5 11.5249 0.763392 11.9938 1.23223C12.4626 1.70107 12.726 2.33696 12.726 3C12.726 3.66304 12.4626 4.29893 11.9938 4.76777C11.5249 5.23661 10.889 5.5 10.226 5.5C9.56296 5.5 8.92707 5.23661 8.45823 4.76777C7.98939 4.29893 7.726 3.66304 7.726 3C7.726 2.33696 7.98939 1.70107 8.45823 1.23223C8.92707 0.763392 9.56296 0.5 10.226 0.5Z" fill="black"/>
</svg>
